<svg xmlns="http://www.w3.org/2000/svg" viewBox="0 0 936.03 157.16"><defs><style>.cls-1,.cls-2,.cls-3,.cls-4{fill:none;}.cls-1{stroke:#000;}.cls-1,.cls-2,.cls-4{stroke-linecap:round;stroke-linejoin:round;}.cls-2,.cls-3{stroke:#5c5c5c;}.cls-3{stroke-miterlimit:10;}.cls-4{stroke:#fff;stroke-width:0;}</style></defs><title>Asset 6</title><g id="Layer_2" data-name="Layer 2"><g id="Layer_1-2" data-name="Layer 1"><path class="cls-1" d="M860.96 97.35v58.56M860.91 108.79l6.11-6.11M852.79 107.34l8.17 8.36M450.73 49.09v107.43M457.08 53.6h12.3v7.79h-12.3zM457.08 65.9h12.3v7.79h-12.3zM457.08 78.82h12.3v7.79h-12.3zM457.08 91.73h12.3v7.79h-12.3zM457.08 104.65h12.3v7.79h-12.3zM457.08 117.57h12.3v7.79h-12.3zM457.08 130.48h12.3v7.79h-12.3zM457.08 143.4h12.3v7.79h-12.3zM485.38 25.19v91.23M492.76 17.81v106.4M500.75 13.5v123.63M370.77 137.54a4.1 4.1 0 0 1 4.1 4.1v15h-8.2v-15a4.1 4.1 0 0 1 4.1-4.1zM370.77 137.54V89.36l9.43-10.46h10.87v3.9M370.77 89.36l-9.43-10.46h-10.87v3.9"/><circle class="cls-1" cx="350.66" cy="87.91" r="4.8"/><path class="cls-1" d="M346.47 87.91h8.38"/><circle class="cls-1" cx="391.07" cy="87.91" r="4.8"/><path class="cls-1" d="M386.88 87.91h8.38M138.82 108.43v39.25M138.77 119.86l6.11-6.1M806.67 137.54a4.1 4.1 0 0 1 4.1 4.1v15h-8.2v-15a4.1 4.1 0 0 1 4.1-4.1zM806.67 137.54V89.36l9.43-10.46h10.87v3.9M806.67 89.36l-9.43-10.46h-10.86v3.9"/><circle class="cls-1" cx="786.56" cy="87.91" r="4.8"/><path class="cls-1" d="M782.37 87.91h8.39"/><circle class="cls-1" cx="826.97" cy="87.91" r="4.8"/><path class="cls-1" d="M822.78 87.91h8.38M707.81 60.25h63.35v95.66h-63.35zM712.43 46.41h54.13v13.84h-54.13z"/><path class="cls-1" d="M714.14 65.17h12.57v8h-12.57zM714.14 78.08h12.57v8h-12.57zM714.14 91h12.57v8h-12.57zM714.14 103.91h12.57v8h-12.57zM714.14 116.83h12.57v8h-12.57zM733.21 65.17h12.57v8h-12.57zM733.21 78.08h12.57v8h-12.57zM733.21 91h12.57v8h-12.57zM733.21 103.91h12.57v8h-12.57zM733.21 116.83h12.57v8h-12.57zM752.27 65.17h12.57v8h-12.57zM752.27 78.08h12.57v8h-12.57zM752.27 91h12.57v8h-12.57zM752.27 103.91h12.57v8h-12.57zM752.27 116.83h12.57v8h-12.57zM719.26 138.36h17.24v17.24h-17.24zM742.48 138.36h17.24v17.24h-17.24z"/><path class="cls-2" d="M124.67 101a18.74 18.74 0 1 1-2.53 20.84M124.67 101c1.33 3.63 2.18 6.79 2.18 8.92a17.42 17.42 0 0 1-4.71 11.91M124.67 101c-4.67-12.82-15.33-31.53-15.33-31.53s-17.51 30.8-17.51 40.46a17.51 17.51 0 0 0 17.51 17.51h.23M122.14 121.85a17.43 17.43 0 0 1-12.57 5.58"/><path class="cls-3" d="M109.57 100.63v26.8M110.14 112.43l4.89-6.12M99.93 110.21l9.34 9.34"/><path class="cls-1" d="M873.83 88.62a18.75 18.75 0 1 0 .07 27.15M873.83 88.62c5.19-11.9 12.8-25.3 12.8-25.3s17.51 30.8 17.51 40.46a17.49 17.49 0 0 1-30.24 12"/><path class="cls-1" d="M873.83 88.62c-2.68 6.14-4.7 11.88-4.7 15.17a17.43 17.43 0 0 0 4.77 12M886.87 155.37V94.48M892.32 100.16l-4.88 6.12M877.22 104.06l9.34 9.34M508.75 89.74V.5l-31.99 18.45v137.57h31.99v-41.35"/><path class="cls-1" d="M508.75 89.74C513.93 77.58 522 63.32 522 63.32s17.51 30.8 17.51 40.46a17.49 17.49 0 0 1-30.79 11.38"/><path class="cls-1" d="M508.75 89.74c-2.43 5.71-4.22 11-4.22 14a17.42 17.42 0 0 0 4.22 11.38M522.26 155.37V94.48M527.72 100.16l-4.89 6.12M512.62 104.06l9.34 9.34M440.63 156.52h35.73V49.09h-35.88"/><path class="cls-4" d="M437.87 156.52h.13M440.48 156.52h.15M440.48 156.52H438"/><path class="cls-1" d="M434.53 140.61V49.09h5.95M440.48 141.77V49.09"/><path class="cls-4" d="M437.87 156.52h.13"/><path class="cls-1" d="M434.53 140.61a5.22 5.22 0 0 0-9.7 2.67l-.08-.08a4.52 4.52 0 0 0-4.51-1.13 7.71 7.71 0 0 0-15.4.62v.63a6.59 6.59 0 0 0-.7 0 6.51 6.51 0 0 0-.16 13 4.8 4.8 0 0 0 1.7.32H437a4.79 4.79 0 0 0 .83-.08M434.53 140.61c.09.15.18.3.25.45a9.24 9.24 0 0 1 3.51-.46 4.21 4.21 0 0 1 2.18 1.17M440.48 141.77a4.42 4.42 0 0 1 1.19 4.22 5.3 5.3 0 0 1 5.31 5.3c0 4-3.4 5-6.34 5.22"/><path class="cls-4" d="M440.63 156.52c-1 .08-1.92.08-2.65.08v-.08"/><path class="cls-1" d="M144.48 150.51a3 3 0 0 0-.85.14 3.91 3.91 0 0 0-4.87-3 4.57 4.57 0 1 0-9.13-.28 4.69 4.69 0 1 0-1.06 9.26h15.91a3.08 3.08 0 1 0 0-6.15zM186.46 25.72h50.44v130.19h-50.44z"/><path class="cls-1" d="M191.41 31.04h40.21v9.95h-40.21zM191.41 46.05h40.21V56h-40.21zM191.41 61.06h40.21v9.95h-40.21zM191.41 76.07h40.21v9.95h-40.21zM191.41 91.08h40.21v9.95h-40.21zM191.41 106.09h40.21v9.95h-40.21zM191.41 121.1h40.21v9.95h-40.21zM191.41 136.11h40.21v9.95h-40.21zM598.92 43.02h43.73V155.9h-43.73z"/><path class="cls-1" d="M604.01 48.71h33.29v8.44h-33.29zM604.01 61.45h33.29v8.44h-33.29zM604.01 74.18h33.29v8.44h-33.29zM604.01 86.92h33.29v8.44h-33.29zM604.01 99.65h33.29v8.44h-33.29zM604.01 112.38h33.29v8.44h-33.29zM604.01 125.12h33.29v8.44h-33.29zM604.01 137.85h33.29v8.44h-33.29zM236.89 60.25h63.35v95.66h-63.35zM241.5 53.33h54.13v6.92H241.5z"/><path class="cls-1" d="M243.22 65.17h12.57v8h-12.57zM243.22 78.08h12.57v8h-12.57zM243.22 91h12.57v8h-12.57zM243.22 103.91h12.57v8h-12.57zM243.22 116.83h12.57v8h-12.57zM262.28 65.17h12.57v8h-12.57zM262.28 78.08h12.57v8h-12.57zM262.28 91h12.57v8h-12.57zM262.28 103.91h12.57v8h-12.57zM262.28 116.83h12.57v8h-12.57zM281.35 65.17h12.57v8h-12.57zM281.35 78.08h12.57v8h-12.57zM281.35 91h12.57v8h-12.57zM281.35 103.91h12.57v8h-12.57zM281.35 116.83h12.57v8h-12.57zM248.33 138.36h17.24v17.24h-17.24zM271.56 138.36h17.24v17.24h-17.24zM281.94 53.43h-28.1V40.02l14.05-11.69 14.05 11.69v13.41z"/><path class="cls-1" d="M272.57 53.43h-8.82v-8.14a4.41 4.41 0 0 1 8.82 0z"/><circle class="cls-1" cx="330.18" cy="113.29" r="18.75"/><path class="cls-1" d="M330.18 108.43v46.25M330.14 119.86l6.11-6.1M322.02 118.42l8.16 8.35"/><circle class="cls-1" cx="675.23" cy="113.29" r="18.75"/><path class="cls-1" d="M675.23 108.43v46.25M675.19 119.86l6.11-6.1M667.07 118.42l8.16 8.35M37.2 25.72h47.05M48.58 36.01h24.65M48.58 48.38h24.65M84.25 137.53V17.81H37.2V155.6h33.59M109.57 142.68v-15.25"/><path class="cls-1" d="M84.25 137.53a5.14 5.14 0 0 0-5.65 2.92 9.25 9.25 0 0 0-3.51-.46 4.42 4.42 0 0 0-3.37 5.4 5.3 5.3 0 0 0-5.31 5.3c0 3.1 2.07 4.38 4.38 4.92M84.25 137.53a5.22 5.22 0 0 1 4.31 5.14l.08-.08a4.52 4.52 0 0 1 4.51-1.13 7.71 7.71 0 0 1 15.4.62v.63a6.56 6.56 0 0 1 .7 0h.36"/><path class="cls-1" d="M109.57 142.68a6.5 6.5 0 0 1-.2 13 4.8 4.8 0 0 1-1.7.32H76.35a4.83 4.83 0 0 1-1-.1v.1a20.71 20.71 0 0 1-4.62-.39M48.58 60.62h24.65M48.58 72.99h24.65M48.58 84.6h24.65M48.58 96.97h24.65M48.58 108.59h24.65M48.58 120.96h24.65M571 74.78h27.6v80.82H571zM571 79.42h27.59M577.67 85.46h14.46M577.67 92.72h14.46M577.67 99.89h14.46M577.67 107.15h14.46M577.67 113.96h14.46M577.67 121.22h14.46M577.67 128.03h14.46M577.67 135.28h14.46M.5 156.52h935.03"/></g></g></svg>