<svg xmlns="http://www.w3.org/2000/svg" viewBox="0 0 512.001 512.001"><path d="M123.751 261.069a4.945 4.945 0 004.946-4.946v-20.555h4.969a4.946 4.946 0 004.946-4.946v-26.798h-88.35v26.798a4.946 4.946 0 004.946 4.946h4.969v20.555a4.946 4.946 0 004.946 4.946h8.581v166.683h-8.581a4.946 4.946 0 00-4.946 4.946v20.555h-4.969a4.946 4.946 0 00-4.946 4.946v26.798h88.349v-26.798a4.946 4.946 0 00-4.946-4.946h-4.969v-20.555a4.946 4.946 0 00-4.946-4.946h-8.581V261.069h8.582z" fill="#ffb125"/><path d="M94.437 484.996h44.175v-26.798a4.946 4.946 0 00-4.946-4.946h-4.969v-20.555a4.946 4.946 0 00-4.946-4.946h-8.581V261.069h8.581a4.945 4.945 0 004.946-4.946v-20.555h4.969a4.946 4.946 0 004.946-4.946v-26.798H94.437v281.172z" fill="#ff901d"/><path d="M502.823 156.847L261.605 1.648a10.359 10.359 0 00-11.211 0L9.177 156.847c-7.956 5.119-4.33 17.454 5.13 17.454h483.386c9.46-.001 13.086-12.335 5.13-17.454z" fill="#ff4c4c"/><path d="M261.605 24.366a10.359 10.359 0 00-11.211 0L17.358 174.3h477.283L261.605 24.366z" fill="#f33939"/><g fill="#ffb125"><path d="M249.045 46.404L50.262 174.3h411.476L262.955 46.404a12.856 12.856 0 00-13.91 0zM285.314 261.069a4.946 4.946 0 004.946-4.946v-20.555h4.969a4.946 4.946 0 004.946-4.946v-26.798h-88.349v26.798a4.946 4.946 0 004.946 4.946h4.969v20.555a4.946 4.946 0 004.946 4.946h8.581v166.683h-8.581a4.945 4.945 0 00-4.946 4.946v20.555h-4.969a4.946 4.946 0 00-4.946 4.946v26.798h88.349v-26.798a4.946 4.946 0 00-4.946-4.946h-4.969v-20.555a4.946 4.946 0 00-4.946-4.946h-8.581V261.069h8.581zM446.878 261.069a4.946 4.946 0 004.946-4.946v-20.555h4.969a4.945 4.945 0 004.946-4.946v-26.798H373.39v26.798a4.946 4.946 0 004.946 4.946h4.969v20.555a4.946 4.946 0 004.946 4.946h8.581v166.683h-8.581a4.946 4.946 0 00-4.946 4.946v20.555h-4.969a4.946 4.946 0 00-4.946 4.946v26.798h88.349v-26.798a4.946 4.946 0 00-4.946-4.946h-4.969v-20.555a4.946 4.946 0 00-4.946-4.946h-8.581V261.069h8.581z"/></g><g fill="#ff901d"><path d="M256 484.996h44.175v-26.798a4.946 4.946 0 00-4.946-4.946h-4.969v-20.555a4.946 4.946 0 00-4.946-4.946h-8.581V261.069h8.581a4.946 4.946 0 004.946-4.946v-20.555h4.969a4.946 4.946 0 004.946-4.946v-26.798H256v281.172zM417.802 484.996h43.937v-26.798a4.946 4.946 0 00-4.946-4.946h-4.969v-20.555a4.946 4.946 0 00-4.946-4.946h-8.581V261.069h8.581a4.946 4.946 0 004.946-4.946v-20.555h4.969a4.945 4.945 0 004.946-4.946v-26.798h-43.937v281.172z"/></g><path d="M488.072 512.001H23.928c-8.568 0-15.514-6.946-15.514-15.514s6.946-15.514 15.514-15.514h464.144c8.568 0 15.514 6.946 15.514 15.514s-6.946 15.514-15.514 15.514z" fill="#ff6d3a"/><path d="M488.072 512.001H23.928c-8.568 0-15.514-6.946-15.514-15.514s6.946-15.514 15.514-15.514h464.144c8.568 0 15.514 6.946 15.514 15.514s-6.946 15.514-15.514 15.514z" fill="#ff4c4c"/><path d="M488.072 497.929H23.928c-6.033 0-11.249-3.45-13.815-8.479a15.425 15.425 0 00-1.699 7.036c0 8.568 6.946 15.514 15.514 15.514h464.144c8.568 0 15.514-6.946 15.514-15.514 0-2.536-.621-4.922-1.699-7.036-2.566 5.029-7.783 8.479-13.815 8.479z" fill="#f33939"/><path fill="#ff4c4c" d="M50.26 174.301h411.48v33.548H50.26z"/><path fill="#f33939" d="M50.26 191.071h411.48v16.774H50.26z"/><path d="M256.512 174.3h205.226L262.955 46.404a12.831 12.831 0 00-6.443-2.026V174.3z" fill="#ff901d"/><path d="M252.477 155.552c-13.87-.224-23.265-7.718-23.265-13.199 0-2.685 2.349-6.376 5.145-6.376 3.691 0 6.711 7.83 18.12 8.724v-26.285c-10.066-3.579-21.252-7.606-21.252-21.923 0-14.093 10.626-19.686 21.252-20.804v-3.244c0-1.342 1.342-2.573 3.244-2.573 1.678 0 3.355 1.23 3.355 2.573v3.02c7.606.224 18.344 2.573 18.344 8.053 0 2.125-1.566 6.375-4.922 6.375-2.684 0-5.592-3.579-13.422-4.138v22.706c9.731 3.579 20.357 8.501 20.357 23.713 0 13.758-8.277 21.364-20.357 23.041v3.803c0 1.342-1.678 2.573-3.355 2.573-1.902 0-3.244-1.23-3.244-2.573v-3.466zm.672-49.215V85.98c-6.264.783-10.738 3.579-10.738 9.395 0 6.376 4.809 8.725 10.738 10.962zm5.257 14.541v23.601c6.04-1.118 9.843-4.698 9.843-11.073-.001-7.048-4.363-10.18-9.843-12.528z" fill="#dd7219"/></svg>