<svg xmlns="http://www.w3.org/2000/svg" viewBox="0 0 480 480"><path d="M128 80v392h224V80H128z" fill="#78b9eb"/><path d="M376 72V56a8 8 0 00-8-8H112a8 8 0 00-8 8v16a8 8 0 008 8h256a8 8 0 008-8z" fill="#00d7df"/><g fill="#abd3f3"><path d="M352 184v288h96V184h-96zM32 184v288h96V184H32z"/></g><g fill="#00d7df"><path d="M448 184h8a8 8 0 008-8v-16a8 8 0 00-8-8H352v32h96zM128 152H24a8 8 0 00-8 8v16a8 8 0 008 8h104v-32z"/></g><path d="M184 328v144h112V328a8 8 0 00-8-8h-96a8 8 0 00-8 8z" fill="#ffda44"/><path d="M344 0H136a8 8 0 00-8 8v40h224V8a8 8 0 00-8-8z" fill="#fbb040"/><g fill="#f1f2f2"><path d="M176 128h128v16H176v-16zM176 176h128v16H176v-16zM176 224h128v16H176v-16zM176 272h128v16H176v-16zM392 224h56v16h-56v-16zM392 272h56v16h-56v-16zM392 320h56v16h-56v-16zM392 368h56v16h-56v-16zM392 416h56v16h-56v-16zM32 224h56v16H32v-16zM32 272h56v16H32v-16zM32 320h56v16H32v-16zM32 368h56v16H32v-16zM32 416h56v16H32v-16z"/></g><path d="M0 464h480v16H0v-16z" fill="#bcbec0"/></svg>