<svg xmlns="http://www.w3.org/2000/svg" viewBox="0 0 512 512"><path d="M314.718 269.29l-47.055-18.512H100.638L53.583 269.29c-18.043 7.098-29.615 24.839-28.839 44.212l5.713 142.631c.326 8.143 7.022 14.577 15.172 14.577h277.044c8.15 0 14.846-6.433 15.172-14.577l5.713-142.631c.775-19.373-10.797-37.114-28.84-44.212z" fill="#c9c6ca"/><path fill="#6e4b53" d="M173.064 303.684l-9.713 167.026h41.599l-9.713-167.026z"/><path d="M191.077 311.276h-13.852a8.258 8.258 0 01-8.258-8.258v-22.11h30.368v22.11a8.258 8.258 0 01-8.258 8.258z" fill="#5c414b"/><path fill="#e6af78" d="M131.01 189.8H237.3v91.11H131.01z"/><path d="M131.006 218.153c15.056 10.843 33.443 17.202 53.145 17.202s38.088-6.359 53.145-17.202v-28.35h-106.29v28.35z" fill="#d29b6e"/><path d="M184.151.239c-37.905 2.049-59.471 22.776-59.471 22.776s-31.634 0-31.634 37.96c0 30.368 7.592 60.498 7.592 60.498h174.618C290.44 37.961 254.377-3.557 184.151.239z" fill="#6e4b53"/><path d="M138.598 90.144c-27.89-34.87-13.919-67.129-13.919-67.129s-31.634 0-31.634 37.96c0 30.368 7.592 60.498 7.592 60.498h37.96l.001-31.329z" fill="#5c414b"/><path d="M267.663 113.882h-7.592l-10.004-18.258c-1.58-2.883-4.869-4.36-8.103-3.768-50.001 9.146-82.861-2.476-95.312-8.294-3.262-1.524-7.145-.522-9.241 2.405-7.683 10.731-16.161 19.189-21.245 23.869a15.208 15.208 0 01-10.323 4.044h-5.463l-.012.002c-.832.015-1.682.103-2.547.27-7.389 1.428-12.368 8.492-12.368 16.017v5.502c0 7.262 4.65 14.112 11.721 15.763 1.593.372 3.143.477 4.627.359 3.775-.301 7.07 2.446 7.75 6.171 6.454 35.374 37.36 62.204 74.599 62.204s68.144-26.83 74.599-62.204c.655-3.588 3.752-6.201 7.35-6.125h1.564c8.386 0 15.184-6.798 15.184-15.184v-7.592c.001-8.383-6.798-15.181-15.184-15.181z" fill="#f0c087"/><path d="M138.598 144.25V84.809c-.413.365-.854.694-1.187 1.159-7.683 10.731-16.161 19.189-21.245 23.869a15.208 15.208 0 01-10.323 4.044h-5.463l-.012.002c-.832.015-1.682.103-2.547.27-7.389 1.428-12.368 8.492-12.368 16.017v5.502c0 7.262 4.65 14.112 11.721 15.763 1.593.372 3.143.477 4.627.359 3.775-.301 7.07 2.446 7.75 6.171 6.454 35.374 37.36 62.204 74.599 62.204 5.162 0 10.184-.563 15.054-1.546-34.588-7.083-60.606-37.689-60.606-74.373z" fill="#e6af78"/><g fill="#dbd9dc"><path d="M184.151 281.146l-55.391-48.467a7.593 7.593 0 00-10.368.345l-17.754 17.754 35.279 52.918c5.315 7.973 16.595 9.09 23.371 2.314l24.863-24.864z"/><path d="M184.151 281.146l55.391-48.467a7.593 7.593 0 0110.368.345l17.754 17.754-35.279 52.918c-5.315 7.973-16.595 9.09-23.371 2.314l-24.863-24.864zM64.518 320.948l-33.03-33.03c-4.608 7.519-7.115 16.346-6.745 25.584l5.713 142.631c.326 8.143 7.023 14.577 15.172 14.577h32.233V353.158c0-12.08-4.8-23.667-13.343-32.21z"/></g><g fill="#6e4b53"><path d="M330.389 305.548c0-4.552 3.702-8.258 8.258-8.258h49.548c4.556 0 8.258 3.706 8.258 8.258v33.032h16.516v-33.032c0-13.661-11.113-24.774-24.774-24.774h-49.548c-13.661 0-24.774 11.113-24.774 24.774v33.032h16.516v-33.032zM247.809 371.613v116.453c0 13.219 10.716 23.934 23.934 23.934h183.358c13.218 0 23.934-10.716 23.934-23.934V371.613H247.809z"/></g><path d="M363.422 437.677c14.479 0 28.377-1.196 41.293-3.394l33.023-8.527c30.091-10.881 49.555-28.206 49.555-47.72v-22.939c0-13.682-11.092-24.774-24.774-24.774H264.325c-13.682 0-24.774 11.092-24.774 24.774v22.939c0 19.514 19.464 36.839 49.555 47.72l33.023 8.527c12.915 2.198 26.814 3.394 41.293 3.394z" fill="#825a5a"/><g fill="#c9c6ca"><path d="M305.615 454.194c-9.122 0-16.516-7.395-16.516-16.516v-16.516a8.258 8.258 0 018.258-8.258h16.516a8.258 8.258 0 018.258 8.258v16.516c0 9.121-7.394 16.516-16.516 16.516zM421.228 454.194c-9.122 0-16.516-7.395-16.516-16.516v-16.516a8.258 8.258 0 018.258-8.258h16.516a8.258 8.258 0 018.258 8.258v16.516c0 9.121-7.394 16.516-16.516 16.516z"/></g><g fill="#dbd9dc"><circle cx="305.62" cy="437.68" r="8.258"/><circle cx="421.23" cy="437.68" r="8.258"/></g></svg>