
<svg id="Capa_1" enable-background="new 0 0 512 512" height="512" viewBox="0 0 512 512" width="512" xmlns="http://www.w3.org/2000/svg"><path d="m19.836 473.394h102.574v31.366h-102.574z" fill="#a2e1f8"/><path d="m140.492 429.848v31.758c0 6.51-5.277 11.787-11.787 11.787h-114.146c-6.51 0-11.787-5.277-11.787-11.787v-31.758c0-6.51 5.277-11.787 11.787-11.787h114.146c6.51 0 11.787 5.277 11.787 11.787z" fill="#baeefc"/><path d="m49.947 418.061h43.369v55.333h-43.369z" fill="#e2faff"/><path d="m324.86 163.488v31.758c0 6.51-5.277 11.787-11.787 11.787h-114.146c-6.51 0-11.787-5.277-11.787-11.787v-31.758c0-6.51 5.277-11.787 11.787-11.787h114.146c6.51 0 11.787 5.277 11.787 11.787z" fill="#baeefc"/><path d="m234.315 151.701h43.369v55.333h-43.369z" fill="#e2faff"/><path d="m324.86 316.846v31.758c0 6.51-5.277 11.787-11.787 11.787h-114.146c-6.51 0-11.787-5.277-11.787-11.787v-31.758c0-6.51 5.277-11.787 11.787-11.787h114.146c6.51 0 11.787 5.277 11.787 11.787z" fill="#baeefc"/><path d="m234.315 305.059h43.369v55.333h-43.369z" fill="#e2faff"/><path d="m140.507 0h53.412c62.707 0 113.541 50.651 113.541 113.133v38.568h-103.661v-8.926c0-21.807-17.742-39.486-39.628-39.486h-2.192c-21.886 0-39.628 17.678-39.628 39.486v275.287h-103.661v-299.56c0-65.447 53.247-118.502 118.929-118.502z" fill="#c0c7cf"/><path d="m389.081 0h102.574v30.45h-102.574z" fill="#c0c7cf"/><path d="m458.131 0h33.524v30.45h-33.524z" fill="#b1b7bf"/><path d="m509.229 42.238v31.758c0 6.51-5.277 11.787-11.787 11.787h-114.147c-6.51 0-11.787-5.277-11.787-11.787v-31.758c0-6.51 5.277-11.787 11.787-11.787h114.146c6.51-.001 11.788 5.277 11.788 11.787z" fill="#baeefc"/><path d="m418.684 30.45h43.369v55.333h-43.369z" fill="#e2faff"/><path d="m371.493 512h-53.413c-62.707 0-113.541-50.651-113.541-113.133v-38.568h103.661v8.926c0 21.807 17.742 39.486 39.628 39.486h2.192c21.886 0 39.628-17.678 39.628-39.486v-283.442h103.662v307.715c0 65.447-53.247 118.502-118.929 118.502z" fill="#c0c7cf"/><path d="m459.786 85.783v307.715c0 65.447-53.246 118.502-118.929 118.502h30.636 2.888c65.683 0 118.929-53.055 118.929-118.502v-307.715z" fill="#b1b7bf"/><path d="m202.39 207.034h105.651v98.158h-105.651z" fill="#c0c7cf"/></svg>