<svg xmlns="http://www.w3.org/2000/svg" viewBox="0 0 512 512"><path d="M312.407 149.695H43.39v-17.356a8.679 8.679 0 018.678-8.678h251.661a8.679 8.679 0 018.678 8.678v17.356z" fill="#ffc84b"/><path d="M43.39 141.017h269.017c19.171 0 34.712 15.541 34.712 34.712v86.78c0 19.171-15.541 34.712-34.712 34.712H43.39c-19.171 0-34.712-15.541-34.712-34.712v-86.78c0-19.172 15.541-34.712 34.712-34.712z" fill="#ffdc5a"/><path d="M412.203 331.931H17.356a8.679 8.679 0 01-8.678-8.678v-17.356a8.679 8.679 0 018.678-8.678h394.847v34.712z" fill="#736f7b"/><path d="M412.203 331.931H17.356v26.034a8.679 8.679 0 008.678 8.678h386.169v-34.712z" fill="#625d6b"/><path d="M448.012 167.051h-57.503a8.679 8.679 0 00-8.678 8.678v130.17a8.679 8.679 0 008.678 8.678h21.695v43.39h91.119v-61.989a86.79 86.79 0 00-5.784-31.152l-33.327-86.649a17.359 17.359 0 00-16.2-11.126z" fill="#ffdc5a"/><path fill="#ffc84b" d="M412.203 314.577h91.119v43.39h-91.119z"/><circle cx="82.441" cy="362.305" r="39.774" fill="#ededee"/><path d="M82.441 410.033c-26.319 0-47.729-21.41-47.729-47.729s21.41-47.729 47.729-47.729 47.729 21.41 47.729 47.729-21.41 47.729-47.729 47.729zm0-78.102c-16.751 0-30.373 13.622-30.373 30.373s13.622 30.373 30.373 30.373 30.373-13.622 30.373-30.373c0-16.75-13.623-30.373-30.373-30.373z" fill="#504b5a"/><circle cx="82.441" cy="362.305" r="17.356" fill="#dcdbde"/><circle cx="177.898" cy="362.305" r="39.774" fill="#ededee"/><path d="M177.898 410.033c-26.319 0-47.729-21.41-47.729-47.729s21.41-47.729 47.729-47.729 47.729 21.41 47.729 47.729-21.41 47.729-47.729 47.729zm0-78.102c-16.751 0-30.373 13.622-30.373 30.373s13.622 30.373 30.373 30.373 30.373-13.622 30.373-30.373c0-16.75-13.622-30.373-30.373-30.373z" fill="#504b5a"/><circle cx="177.898" cy="362.305" r="17.356" fill="#dcdbde"/><circle cx="412.203" cy="362.305" r="39.774" fill="#ededee"/><path d="M412.203 410.033c-26.319 0-47.729-21.41-47.729-47.729s21.41-47.729 47.729-47.729 47.729 21.41 47.729 47.729-21.409 47.729-47.729 47.729zm0-78.102c-16.751 0-30.373 13.622-30.373 30.373s13.622 30.373 30.373 30.373 30.373-13.622 30.373-30.373c0-16.75-13.622-30.373-30.373-30.373z" fill="#504b5a"/><circle cx="412.203" cy="362.305" r="17.356" fill="#dcdbde"/><path d="M494.644 366.643h8.678a8.679 8.679 0 008.678-8.678v-17.356a8.679 8.679 0 00-8.678-8.678h-8.678a8.679 8.679 0 00-8.678 8.678v17.356a8.677 8.677 0 008.678 8.678z" fill="#625d6b"/><path d="M494.644 297.221h8.678v26.034h-8.678a8.679 8.679 0 01-8.678-8.678v-8.678a8.677 8.677 0 018.678-8.678z" fill="#ededee"/><path d="M445.39 184.407h-37.526a8.679 8.679 0 00-8.678 8.678v43.39a8.679 8.679 0 008.678 8.678h63.681c4.4 0 7.432-4.414 5.852-8.521l-15.807-41.1a17.36 17.36 0 00-16.2-11.125z" fill="#625d6b"/><path d="M251.661 331.931h60.746a8.679 8.679 0 018.678 8.678v26.034a8.679 8.679 0 01-8.678 8.678h-60.746a8.679 8.679 0 01-8.678-8.678v-26.034a8.679 8.679 0 018.678-8.678z" fill="#8d8a94"/><circle cx="260.339" cy="349.288" r="8.678" fill="#625d6b"/><path d="M373.153 184.407h-17.356V130.85c0-2.302-.914-4.51-2.543-6.137l-9.203-9.203a4.34 4.34 0 010-6.136l6.135-6.135a4.34 4.34 0 016.136 0l9.203 9.203a26.04 26.04 0 017.627 18.414l.001 53.551z" fill="#8d8a94"/><path d="M355.797 175.729h17.356a8.679 8.679 0 018.678 8.678v121.492a8.679 8.679 0 01-8.678 8.678h-17.356a8.679 8.679 0 01-8.678-8.678V184.407a8.678 8.678 0 018.678-8.678z" fill="#a7a5ac"/><g fill="#ffc84b"><path d="M78.102 141.017h17.356V297.22H78.102zM260.339 141.017h17.356V297.22h-17.356z"/></g><path d="M321.085 279.865H8.678a8.679 8.679 0 010-17.356h312.407a8.679 8.679 0 010 17.356z" fill="#a7a5ac"/></svg>